<?xml version="1.0" encoding="utf-8"?>
<!-- Generator: Adobe Illustrator 22.1.0, SVG Export Plug-In . SVG Version: 6.00 Build 0)  -->
<svg version="1.1" id="Contacts_Menu" xmlns="http://www.w3.org/2000/svg" xmlns:xlink="http://www.w3.org/1999/xlink" x="0px"
	 y="0px" viewBox="0 0 30 30" style="enable-background:new 0 0 30 30;" xml:space="preserve">
<style type="text/css">
	.st0{fill:url(#SVGID_1_);}
	.st1{fill:#AA1B1B;}
</style>
<g>
	<radialGradient id="SVGID_1_" cx="9.9095" cy="11.3639" r="15" gradientUnits="userSpaceOnUse">
		<stop  offset="0.6088" style="stop-color:#E3ADAD"/>
		<stop  offset="1" style="stop-color:#E36F6F"/>
	</radialGradient>
	<circle class="st0" cx="15" cy="15" r="15"/>
	<path class="st1" d="M25.7,24.5c-0.1-0.5-0.6-0.9-1.1-1.2c-1.6-0.9-3.2-1.7-5-2.6L18,20.2c0.2-0.5,0.3-1,0.5-1.6
		c1.5-0.3,3.4-0.2,4.9-1.7c-1.6-1.1-2-2.7-2-4.5c0-1.9,0-3.7-0.2-5.6c-0.3-2.1-1.4-3.4-3.7-3.6c-0.8-0.1-1.5-0.7-2.3-1
		c-0.5,0-1,0-1.5,0C9.3,3.4,8.8,6.3,8.7,9.6c-0.1,1.4-0.1,2.9-0.3,4.3c-0.1,1.2-0.6,2.4-1.9,3c1.5,1.4,3.4,1.6,5.1,1.7
		c0.2,0.5,0.3,1,0.5,1.5l-1.5,0.7C9.2,21.5,8.1,22,7,22.6c-1.3,0.6-2.2,1.6-2.9,2.7c2.3,2.4,5.4,4.1,8.9,4.5c1.3,0,2.7,0,4,0
		c3.5-0.5,6.6-2.1,8.8-4.5C25.8,25.1,25.7,24.8,25.7,24.5z"/>
</g>
</svg>
