<?xml version="1.0" encoding="utf-8"?>
<!-- Generator: Adobe Illustrator 22.1.0, SVG Export Plug-In . SVG Version: 6.00 Build 0)  -->
<svg version="1.1" id="Contacts_Menu" xmlns="http://www.w3.org/2000/svg" xmlns:xlink="http://www.w3.org/1999/xlink" x="0px"
	 y="0px" viewBox="0 0 30 30" style="enable-background:new 0 0 30 30;" xml:space="preserve">
<style type="text/css">
	.st0{fill:url(#SVGID_1_);}
	.st1{fill:#184996;}
</style>
<radialGradient id="SVGID_1_" cx="9.9349" cy="11.3639" r="15" gradientUnits="userSpaceOnUse">
	<stop  offset="0.6088" style="stop-color:#81AAC7"/>
	<stop  offset="1" style="stop-color:#4D7A99"/>
</radialGradient>
<circle class="st0" cx="15" cy="15" r="15"/>
<path class="st1" d="M10.7,19.3c-0.4,0.1-0.5,0.3-0.5,0.6c0,0.7-0.4,1.3-0.9,1.5c-2.1,1-4.2,1.9-6.5,2.2C5.6,27.5,10,30,15,30
	c5,0,9.5-2.5,12.2-6.3c-2-0.4-4-1.2-5.9-2.1c-0.1-0.1-0.2-0.2-0.3-0.3c-0.5-0.5-0.9-1.1-0.7-1.8c-0.3-0.1-0.6-0.2-0.9-0.3
	c-0.1-0.1-0.3-0.2-0.3-0.4c-0.2-0.8-0.1-1.6,0.3-2.3c0.3-0.5,0.5-1.1,0.7-1.7c0.1-0.3,0.1-0.7,0.6-0.6c0.1,0,0.2-0.2,0.3-0.3
	c0.3-0.7,0.7-1.3,0.9-2c0.2-0.5,0.2-1,0.2-1.5c0-0.5-0.2-0.6-0.7-0.3c-0.1,0-0.1,0.1-0.3,0.1c0-0.2,0-0.4,0-0.6
	c0.1-0.8,0.3-1.6,0.4-2.4c0.2-1.3,0-2.6-1.2-3.4c-1-0.7-2.1-1.1-3.3-1.2c-0.1,0-0.3,0-0.4-0.1c-1.1-0.9-2.3-0.8-3.6-0.6
	C11.3,2.2,10.1,3,9.7,4.8C9.3,6.2,9.4,7.6,9.7,9c0.1,0.4,0,0.8,0,1.3c-0.2-0.1-0.2-0.1-0.3-0.2C9,9.8,8.8,9.8,8.7,10.4
	c0,0.5,0,1,0.2,1.5c0.2,0.7,0.6,1.4,1,2.1c0.1,0.1,0.2,0.2,0.4,0.3c0.1,0.1,0.3,0.2,0.4,0.3c0.3,0.7,0.6,1.4,0.8,2.1
	c0.1,0.4,0.3,0.8,0.3,1.2C11.8,19,11.8,19.1,10.7,19.3z"/>
</svg>
