<?xml version="1.0" encoding="utf-8"?>
<!-- Generator: Adobe Illustrator 22.0.1, SVG Export Plug-In . SVG Version: 6.00 Build 0)  -->
<svg version="1.1" id="Home_Screen_Default_Wallpaper"
	 xmlns="http://www.w3.org/2000/svg" xmlns:xlink="http://www.w3.org/1999/xlink" x="0px" y="0px" viewBox="0 0 304.1 573.4"
	 style="enable-background:new 0 0 304.1 573.4;" xml:space="preserve">
<style type="text/css">
	.st0{fill:none;}
	.st1{fill:url(#SVGID_1_);}
	.st2{opacity:0.54;}
	.st3{fill:#7A7A7A;}
	.st4{fill:#A1A1A1;}
	.st5{fill:#808080;}
	.st6{fill:#7D7D7D;}
	.st7{fill:#8C8C8C;}
	.st8{fill:#919191;}
	.st9{fill:#949494;}
	.st10{fill:#9C9C9C;}
	.st11{fill:#B3B3B3;}
	.st12{fill:#8A8A8A;}
	.st13{fill:#757575;}
	.st14{fill:#ABABAB;}
	.st15{fill:#A3A3A3;}
	.st16{fill:#858585;}
	.st17{fill:#878787;}
	.st18{fill:#9E9E9E;}
	.st19{fill:#787878;}
	.st20{fill:#A6A6A6;}
	.st21{fill:#999999;}
	.st22{fill:#737373;}
	.st23{fill:#8F8F8F;}
</style>
<rect x="0.1" y="-0.4" class="st0" width="303.9" height="573.9"/>
<linearGradient id="SVGID_1_" gradientUnits="userSpaceOnUse" x1="-78.4173" y1="93.1521" x2="382.5165" y2="479.9214">
	<stop  offset="0" style="stop-color:#3F6AA5"/>
	<stop  offset="1" style="stop-color:#83C9DA"/>
</linearGradient>
<rect x="0.1" y="-0.4" class="st1" width="303.9" height="573.9"/>
<g class="st2">
	<g>
		<polygon class="st3" points="230.6,-0.4 228.5,10 241.9,-0.4 		"/>
		<polygon class="st4" points="230.6,-0.4 212.5,-0.4 228.5,10 		"/>
		<polygon class="st5" points="138.1,6.4 136.2,-0.4 126.2,-0.4 		"/>
		<polygon class="st6" points="148.7,-0.4 136.2,-0.4 138.1,6.4 		"/>
		<polygon class="st5" points="66,-0.4 64.9,4.3 79.5,-0.4 		"/>
		<polygon class="st7" points="10.7,-0.4 8.2,10 31.7,-0.4 		"/>
		<polygon class="st8" points="66,-0.4 61.1,-0.4 64.9,4.3 		"/>
		<polygon class="st9" points="8.2,10 10.7,-0.4 0.1,-0.4 0.1,4.7 		"/>
		<polygon class="st10" points="259.1,33.3 294.3,11.9 289.6,-0.4 256.1,-0.4 		"/>
		<polygon class="st11" points="294.3,11.9 304,18.3 304,-0.4 289.6,-0.4 		"/>
		<polygon class="st12" points="228.5,10 244.9,28.3 259.1,33.3 256.1,-0.4 241.9,-0.4 		"/>
		<polygon class="st13" points="184.1,-0.4 171.1,18.3 201.1,31.9 203.9,-0.4 		"/>
		<polygon class="st7" points="201.1,31.9 244.9,28.3 228.5,10 212.5,-0.4 203.9,-0.4 		"/>
		<polygon class="st14" points="161.7,-0.4 162.8,41.9 171.1,18.3 184.1,-0.4 		"/>
		<polygon class="st12" points="106.1,36.2 120.3,20.5 138.1,6.4 126.2,-0.4 108.7,-0.4 		"/>
		<polygon class="st5" points="138.1,6.4 120.3,20.5 162.8,41.9 161.7,-0.4 148.7,-0.4 		"/>
		<polygon class="st7" points="79.5,-0.4 64.9,4.3 88.6,17.6 106.1,36.2 108.7,-0.4 		"/>
		<polygon class="st15" points="8.2,10 29.3,36.9 54,21.2 53.5,-0.4 31.7,-0.4 		"/>
		<polygon class="st16" points="54,21.2 88.6,17.6 64.9,4.3 61.1,-0.4 53.5,-0.4 		"/>
		<polygon class="st17" points="0.1,30.4 29.3,36.9 8.2,10 0.1,4.7 		"/>
		<polygon class="st10" points="283.2,47.4 251.9,68.1 259.1,33.3 294.3,11.9 		"/>
		<polygon class="st18" points="304,18.3 294.3,11.9 283.2,47.4 304,53.6 		"/>
		<polygon class="st19" points="251.9,68.1 227.1,58.1 244.9,28.3 259.1,33.3 		"/>
		<polygon class="st16" points="213.6,66 194.1,67.4 171.1,18.3 201.1,31.9 		"/>
		<polygon class="st20" points="227.1,58.1 213.6,66 201.1,31.9 244.9,28.3 		"/>
		<polygon class="st6" points="194.1,67.4 149,67.4 162.8,41.9 171.1,18.3 		"/>
		<polygon class="st18" points="132.8,53.8 93,68.1 106.1,36.2 120.3,20.5 		"/>
		<polygon class="st12" points="149,67.4 132.8,53.8 120.3,20.5 162.8,41.9 		"/>
		<polygon class="st3" points="93,68.1 66.9,41.7 88.6,17.6 106.1,36.2 		"/>
		<polygon class="st3" points="35,64.6 9.6,48.8 29.3,36.9 54,21.2 		"/>
		<polygon class="st21" points="66.9,41.7 35,64.6 54,21.2 88.6,17.6 		"/>
		<polygon class="st16" points="0.1,53.5 9.6,48.8 29.3,36.9 0.1,30.4 		"/>
		<polygon class="st3" points="304.2,82.2 273.6,79.3 251.9,68.1 283.2,47.4 		"/>
		<polygon class="st5" points="304,53.6 283.2,47.4 304,81.9 		"/>
		<polygon class="st13" points="273.6,79.3 224.5,99.4 227.1,58.1 251.9,68.1 		"/>
		<polygon class="st13" points="201.1,102.9 173.7,95.1 194.1,67.4 213.6,66 		"/>
		<polygon class="st3" points="224.5,99.4 201.1,102.9 213.6,66 227.1,58.1 		"/>
		<polygon class="st12" points="173.7,95.1 160.2,82.2 149,67.4 194.1,67.4 		"/>
		<polygon class="st18" points="117.7,103.6 100.2,97.2 93,68.1 132.8,53.8 		"/>
		<polygon class="st13" points="160.2,82.2 117.7,103.6 132.8,53.8 149,67.4 		"/>
		<polygon class="st5" points="100.2,97.2 72.8,76.5 66.9,41.7 93,68.1 		"/>
		<polygon class="st22" points="53.3,96.5 4.3,76.5 9.6,48.8 35,64.6 		"/>
		<polygon class="st23" points="72.8,76.5 53.3,96.5 35,64.6 66.9,41.7 		"/>
		<polygon class="st8" points="0.1,80 4.3,76.5 9.6,48.8 0.1,53.5 		"/>
		<polygon class="st3" points="289.8,103.4 261.1,97 273.6,79.3 304.2,82.2 		"/>
		<polygon class="st12" points="304,110.4 304,82.5 289.8,103.4 		"/>
		<polygon class="st12" points="261.1,97 227.1,129.1 224.5,99.4 273.6,79.3 		"/>
		<polygon class="st7" points="194.5,115.6 188.2,134.9 173.7,95.1 201.1,102.9 		"/>
		<polygon class="st15" points="227.1,129.1 194.5,115.6 201.1,102.9 224.5,99.4 		"/>
		<polygon class="st5" points="188.2,134.9 147,124.9 160.2,82.2 173.7,95.1 		"/>
		<polygon class="st13" points="129.5,126.3 81.1,121.3 100.2,97.2 117.7,103.6 		"/>
		<polygon class="st15" points="147,124.9 129.5,126.3 117.7,103.6 160.2,82.2 		"/>
		<polygon class="st12" points="81.1,121.3 61.7,117.7 72.8,76.5 100.2,97.2 		"/>
		<polygon class="st15" points="38.9,107 8.9,125.6 4.3,76.5 53.3,96.5 		"/>
		<polygon class="st5" points="61.7,117.7 38.9,107 53.3,96.5 72.8,76.5 		"/>
		<polygon class="st3" points="0.1,121.8 8.9,125.6 4.3,76.5 0.1,80 		"/>
		<polygon class="st5" points="295.7,136.8 249.9,151.1 261.1,97 289.8,103.4 		"/>
		<polygon class="st13" points="304,110.4 289.8,103.4 295.7,136.8 304,140.6 		"/>
		<polygon class="st15" points="249.9,151.1 239.6,156.1 227.1,129.1 261.1,97 		"/>
		<polygon class="st3" points="215.5,142.5 169.1,156.1 188.2,134.9 194.5,115.6 		"/>
		<polygon class="st5" points="239.6,156.1 215.5,142.5 194.5,115.6 227.1,129.1 		"/>
		<polygon class="st18" points="169.1,156.1 163.4,142.5 147,124.9 188.2,134.9 		"/>
		<polygon class="st5" points="118.4,154.6 106.8,139.6 81.1,121.3 129.5,126.3 		"/>
		<polygon class="st12" points="163.4,142.5 118.4,154.6 129.5,126.3 147,124.9 		"/>
		<polygon class="st7" points="106.8,139.6 81.4,151.8 61.7,117.7 81.1,121.3 		"/>
		<polygon class="st12" points="31.7,138.9 22.7,157.5 8.9,125.6 38.9,107 		"/>
		<polygon class="st5" points="81.4,151.8 31.7,138.9 38.9,107 61.7,117.7 		"/>
		<polygon class="st3" points="0.1,150.4 22.7,157.5 8.9,125.6 0.1,121.8 		"/>
		<polygon class="st12" points="285.2,169.4 271.6,172.3 249.9,151.1 295.7,136.8 		"/>
		<polygon class="st3" points="304,140.6 295.7,136.8 285.2,169.4 304,173.8 		"/>
		<polygon class="st7" points="271.6,172.3 224.5,168.7 239.6,156.1 249.9,151.1 		"/>
		<polygon class="st12" points="203.7,160.8 188.8,185.9 169.1,156.1 215.5,142.5 		"/>
		<polygon class="st13" points="224.5,168.7 203.7,160.8 215.5,142.5 239.6,156.1 		"/>
		<polygon class="st7" points="188.8,185.9 166.7,184.4 163.4,142.5 169.1,156.1 		"/>
		<polygon class="st15" points="141.3,169.4 85.1,185.9 106.8,139.6 118.4,154.6 		"/>
		<polygon class="st5" points="166.7,184.4 141.3,169.4 118.4,154.6 163.4,142.5 		"/>
		<polygon class="st3" points="85.1,185.9 64.3,177.3 81.4,151.8 106.8,139.6 		"/>
		<polygon class="st5" points="54,193 8.2,168.7 22.7,157.5 31.7,138.9 		"/>
		<polygon class="st7" points="64.3,177.3 54,193 31.7,138.9 81.4,151.8 		"/>
		<polygon class="st12" points="0.1,172.7 8.2,168.7 22.7,157.5 0.1,150.4 		"/>
		<polygon class="st3" points="297,197.8 259.1,195.6 271.6,172.3 285.2,169.4 		"/>
		<polygon class="st7" points="304,173.8 285.2,169.4 297,197.8 304,200.7 		"/>
		<polygon class="st15" points="259.1,195.6 225.2,202.8 224.5,168.7 271.6,172.3 		"/>
		<polygon class="st5" points="217.5,213.5 172.4,216.4 188.8,185.9 203.7,160.8 		"/>
		<polygon class="st3" points="225.2,202.8 217.5,213.5 203.7,160.8 224.5,168.7 		"/>
		<polygon class="st5" points="172.4,216.4 147,199.2 166.7,184.4 188.8,185.9 		"/>
		<polygon class="st10" points="122.3,214.9 104.1,214.9 85.1,185.9 141.3,169.4 		"/>
		<polygon class="st5" points="147,199.2 122.3,214.9 141.3,169.4 166.7,184.4 		"/>
		<polygon class="st15" points="104.1,214.9 67.6,218.5 64.3,177.3 85.1,185.9 		"/>
		<polygon class="st5" points="37.6,214.2 23.4,196.3 8.2,168.7 54,193 		"/>
		<polygon class="st18" points="67.6,218.5 37.6,214.2 54,193 64.3,177.3 		"/>
		<polygon class="st3" points="0.1,204 23.4,196.3 8.2,168.7 0.1,172.7 		"/>
		<polygon class="st5" points="291.7,236.9 262.4,226.9 259.1,195.6 297,197.8 		"/>
		<polygon class="st5" points="304,200.7 297,197.8 291.7,236.9 304,236.9 		"/>
		<polygon class="st11" points="262.4,226.9 234.4,245.4 225.2,202.8 259.1,195.6 		"/>
		<polygon class="st18" points="203.1,245.4 190.2,237.6 172.4,216.4 217.5,213.5 		"/>
		<polygon class="st23" points="234.4,245.4 203.1,245.4 217.5,213.5 225.2,202.8 		"/>
		<polygon class="st3" points="190.2,237.6 145.7,245.4 147,199.2 172.4,216.4 		"/>
		<polygon class="st5" points="120.3,231.9 94.3,243.3 104.1,214.9 122.3,214.9 		"/>
		<polygon class="st5" points="145.7,245.4 120.3,231.9 122.3,214.9 147,199.2 		"/>
		<polygon class="st5" points="94.3,243.3 81.4,232.6 67.6,218.5 104.1,214.9 		"/>
		<polygon class="st15" points="50.1,241.9 5.6,244 23.4,196.3 37.6,214.2 		"/>
		<polygon class="st7" points="81.4,232.6 50.1,241.9 37.6,214.2 67.6,218.5 		"/>
		<polygon class="st5" points="0.1,241.3 5.6,244 23.4,196.3 0.1,204 		"/>
		<polygon class="st15" points="302.2,254.5 277.5,273.8 262.4,226.9 291.7,236.9 		"/>
		<polygon class="st13" points="304,236.9 291.7,236.9 302.2,254.5 304,255.8 		"/>
		<polygon class="st5" points="277.5,273.8 248.8,260.2 234.4,245.4 262.4,226.9 		"/>
		<polygon class="st13" points="201.8,258.1 173.1,272.4 190.2,237.6 203.1,245.4 		"/>
		<polygon class="st12" points="248.8,260.2 201.8,258.1 203.1,245.4 234.4,245.4 		"/>
		<polygon class="st5" points="173.1,272.4 160.8,259.5 145.7,245.4 190.2,237.6 		"/>
		<polygon class="st13" points="132.1,259.5 108.7,261.6 94.3,243.3 120.3,231.9 		"/>
		<polygon class="st18" points="160.8,259.5 132.1,259.5 120.3,231.9 145.7,245.4 		"/>
		<polygon class="st3" points="108.7,261.6 64.3,274.5 81.4,232.6 94.3,243.3 		"/>
		<polygon class="st7" points="35,256.6 9.6,277.4 5.6,244 50.1,241.9 		"/>
		<polygon class="st13" points="64.3,274.5 35,256.6 50.1,241.9 81.4,232.6 		"/>
		<polygon class="st10" points="0.1,272 9.6,277.4 5.6,244 0.1,241.3 		"/>
		<polygon class="st3" points="304,265.9 302.2,254.5 277.5,273.8 259.1,303.6 304,301 		"/>
		<polygon class="st5" points="304,255.8 302.2,254.5 304,265.9 		"/>
		<polygon class="st18" points="259.1,303.6 227.8,289.3 248.8,260.2 277.5,273.8 		"/>
		<polygon class="st5" points="201.8,306.4 171.1,303.6 173.1,272.4 201.8,258.1 		"/>
		<polygon class="st10" points="227.8,289.3 201.8,306.4 201.8,258.1 248.8,260.2 		"/>
		<polygon class="st12" points="171.1,303.6 147,303.6 160.8,259.5 173.1,272.4 		"/>
		<polygon class="st7" points="121,288.6 92.3,304.3 108.7,261.6 132.1,259.5 		"/>
		<polygon class="st3" points="147,303.6 121,288.6 132.1,259.5 160.8,259.5 		"/>
		<polygon class="st12" points="92.3,304.3 78.7,287.9 64.3,274.5 108.7,261.6 		"/>
		<polygon class="st18" points="54.7,304.3 29.9,287.9 9.6,277.4 35,256.6 		"/>
		<polygon class="st3" points="78.7,287.9 54.7,304.3 35,256.6 64.3,274.5 		"/>
		<polygon class="st3" points="0.1,294.4 29.9,287.9 9.6,277.4 0.1,272 		"/>
		<polygon class="st10" points="304,301 259.1,303.6 274.9,330.5 302.2,332.7 304,324.8 		"/>
		<polygon class="st12" points="304,332 304,324.8 302.2,332.7 		"/>
		<polygon class="st12" points="274.9,330.5 229.1,335.5 227.8,289.3 259.1,303.6 		"/>
		<polygon class="st13" points="213.6,317.6 177,335.5 171.1,303.6 201.8,306.4 		"/>
		<polygon class="st3" points="229.1,335.5 213.6,317.6 201.8,306.4 227.8,289.3 		"/>
		<polygon class="st3" points="177,335.5 149,316.9 147,303.6 171.1,303.6 		"/>
		<polygon class="st15" points="136.1,333.4 108.1,332.7 92.3,304.3 121,288.6 		"/>
		<polygon class="st5" points="149,316.9 136.1,333.4 121,288.6 147,303.6 		"/>
		<polygon class="st5" points="108.1,332.7 67.6,333.4 78.7,287.9 92.3,304.3 		"/>
		<polygon class="st15" points="45.5,326.2 8.9,316.9 29.9,287.9 54.7,304.3 		"/>
		<polygon class="st7" points="67.6,333.4 45.5,326.2 54.7,304.3 78.7,287.9 		"/>
		<polygon class="st5" points="0.1,321.4 8.9,316.9 29.9,287.9 0.1,294.4 		"/>
		<polygon class="st3" points="287.1,362.4 251.9,346.7 274.9,330.5 302.2,332.7 		"/>
		<polygon class="st5" points="304,332 302.2,332.7 287.1,362.4 304,359 		"/>
		<polygon class="st5" points="251.9,346.7 229.1,366.7 229.1,335.5 274.9,330.5 		"/>
		<polygon class="st5" points="202.4,365.3 166.5,361.7 177,335.5 213.6,317.6 		"/>
		<polygon class="st15" points="229.1,366.7 202.4,365.3 213.6,317.6 229.1,335.5 		"/>
		<polygon class="st15" points="166.5,361.7 161.5,348.9 149,316.9 177,335.5 		"/>
		<polygon class="st12" points="121,363.9 93,358.2 108.1,332.7 136.1,333.4 		"/>
		<polygon class="st18" points="161.5,348.9 121,363.9 136.1,333.4 149,316.9 		"/>
		<polygon class="st3" points="93,358.2 66.9,351 67.6,333.4 108.1,332.7 		"/>
		<polygon class="st12" points="37.6,348.1 21.4,344.6 8.9,316.9 45.5,326.2 		"/>
		<polygon class="st5" points="66.9,351 37.6,348.1 45.5,326.2 67.6,333.4 		"/>
		<polygon class="st10" points="0.1,352.5 21.4,344.6 8.9,316.9 0.1,321.4 		"/>
		<polygon class="st3" points="297.6,398 257.1,394.4 251.9,346.7 287.1,362.4 		"/>
		<polygon class="st15" points="304,359 287.1,362.4 297.6,398 304,394.3 		"/>
		<polygon class="st12" points="257.1,394.4 229.8,395.1 229.1,366.7 251.9,346.7 		"/>
		<polygon class="st7" points="209.6,385.8 177,395.1 166.5,361.7 202.4,365.3 		"/>
		<polygon class="st3" points="229.8,395.1 209.6,385.8 202.4,365.3 229.1,366.7 		"/>
		<polygon class="st12" points="177,395.1 149,375.8 161.5,348.9 166.5,361.7 		"/>
		<polygon class="st15" points="129.5,390.8 106.8,379.4 93,358.2 121,363.9 		"/>
		<polygon class="st3" points="149,375.8 129.5,390.8 121,363.9 161.5,348.9 		"/>
		<polygon class="st10" points="106.8,379.4 65.6,394.4 66.9,351 93,358.2 		"/>
		<polygon class="st15" points="36.9,394.4 10.2,376.5 21.4,344.6 37.6,348.1 		"/>
		<polygon class="st3" points="65.6,394.4 36.9,394.4 37.6,348.1 66.9,351 		"/>
		<polygon class="st3" points="0.1,381.3 10.2,376.5 21.4,344.6 0.1,352.5 		"/>
		<polygon class="st7" points="279.9,412.7 254.5,424.2 257.1,394.4 297.6,398 		"/>
		<polygon class="st3" points="304,394.3 297.6,398 279.9,412.7 304,414.5 		"/>
		<polygon class="st10" points="254.5,424.2 237,415.6 229.8,395.1 257.1,394.4 		"/>
		<polygon class="st10" points="197.2,422 171.8,422 177,395.1 209.6,385.8 		"/>
		<polygon class="st5" points="237,415.6 197.2,422 209.6,385.8 229.8,395.1 		"/>
		<polygon class="st5" points="171.8,422 139.8,427 149,375.8 177,395.1 		"/>
		<polygon class="st5" points="118.4,407 91.6,407 106.8,379.4 129.5,390.8 		"/>
		<polygon class="st3" points="139.8,427 118.4,407 129.5,390.8 149,375.8 		"/>
		<polygon class="st12" points="91.6,407 78.7,422.7 65.6,394.4 106.8,379.4 		"/>
		<polygon class="st12" points="51.4,407 8.9,424.2 10.2,376.5 36.9,394.4 		"/>
		<polygon class="st3" points="78.7,422.7 51.4,407 36.9,394.4 65.6,394.4 		"/>
		<polygon class="st5" points="0.1,420 8.9,424.2 10.2,376.5 0.1,381.3 		"/>
		<polygon class="st5" points="299.6,441.1 272.2,440.4 254.5,424.2 279.9,412.7 		"/>
		<polygon class="st13" points="304,414.5 279.9,412.7 299.6,441.1 304,442.1 		"/>
		<polygon class="st15" points="272.2,440.4 220.6,438.9 237,415.6 254.5,424.2 		"/>
		<polygon class="st3" points="203.1,450.4 182.9,437.5 171.8,422 197.2,422 		"/>
		<polygon class="st5" points="220.6,438.9 203.1,450.4 197.2,422 237,415.6 		"/>
		<polygon class="st7" points="182.9,437.5 162.1,460.4 139.8,427 171.8,422 		"/>
		<polygon class="st18" points="120.3,454.7 104.1,440.4 91.6,407 118.4,407 		"/>
		<polygon class="st15" points="162.1,460.4 120.3,454.7 118.4,407 139.8,427 		"/>
		<polygon class="st3" points="104.1,440.4 63,451.1 78.7,422.7 91.6,407 		"/>
		<polygon class="st5" points="33,437.5 24,456.1 8.9,424.2 51.4,407 		"/>
		<polygon class="st13" points="63,451.1 33,437.5 51.4,407 78.7,422.7 		"/>
		<polygon class="st7" points="0.1,448.4 24,456.1 8.9,424.2 0.1,420 		"/>
		<polygon class="st5" points="288.4,465.9 251.9,485.2 272.2,440.4 299.6,441.1 		"/>
		<polygon class="st5" points="304,442.1 299.6,441.1 288.4,465.9 304,470.6 		"/>
		<polygon class="st13" points="251.9,485.2 228.5,485.2 220.6,438.9 272.2,440.4 		"/>
		<polygon class="st18" points="195.8,470.2 172.4,477.3 182.9,437.5 203.1,450.4 		"/>
		<polygon class="st7" points="228.5,485.2 195.8,470.2 203.1,450.4 220.6,438.9 		"/>
		<polygon class="st3" points="172.4,477.3 149.7,486.6 162.1,460.4 182.9,437.5 		"/>
		<polygon class="st12" points="132.8,469.4 95.6,465.2 104.1,440.4 120.3,454.7 		"/>
		<polygon class="st5" points="149.7,486.6 132.8,469.4 120.3,454.7 162.1,460.4 		"/>
		<polygon class="st7" points="95.6,465.2 72.8,475.2 63,451.1 104.1,440.4 		"/>
		<polygon class="st18" points="54.7,481.6 7.6,480.9 24,456.1 33,437.5 		"/>
		<polygon class="st10" points="72.8,475.2 54.7,481.6 33,437.5 63,451.1 		"/>
		<polygon class="st12" points="0.1,478.3 7.6,480.9 24,456.1 0.1,448.4 		"/>
		<polygon class="st12" points="299.6,496.4 269.6,514.2 251.9,485.2 288.4,465.9 		"/>
		<polygon class="st10" points="304,470.6 288.4,465.9 299.6,496.4 304,498.3 		"/>
		<polygon class="st11" points="269.6,514.2 227.1,511.4 228.5,485.2 251.9,485.2 		"/>
		<polygon class="st15" points="199.1,495.7 176.4,512.8 172.4,477.3 195.8,470.2 		"/>
		<polygon class="st3" points="227.1,511.4 199.1,495.7 195.8,470.2 228.5,485.2 		"/>
		<polygon class="st7" points="176.4,512.8 143.7,516.4 149.7,486.6 172.4,477.3 		"/>
		<polygon class="st7" points="118.4,496.4 100.2,505 95.6,465.2 132.8,469.4 		"/>
		<polygon class="st13" points="143.7,516.4 118.4,496.4 132.8,469.4 149.7,486.6 		"/>
		<polygon class="st10" points="100.2,505 83.3,496.4 72.8,475.2 95.6,465.2 		"/>
		<polygon class="st5" points="37.6,494.9 1,511.4 7.6,480.9 54.7,481.6 		"/>
		<polygon class="st5" points="83.3,496.4 37.6,494.9 54.7,481.6 72.8,475.2 		"/>
		<polygon class="st3" points="0.1,510.8 1,511.4 7.6,480.9 0.1,478.3 		"/>
		<polygon class="st18" points="285.2,526.9 255.8,540.5 269.6,514.2 299.6,496.4 		"/>
		<polygon class="st5" points="304,498.3 299.6,496.4 285.2,526.9 304,531.2 		"/>
		<polygon class="st10" points="255.8,540.5 229.1,541.9 227.1,511.4 269.6,514.2 		"/>
		<polygon class="st3" points="201.1,544 173.1,541.2 176.4,512.8 199.1,495.7 		"/>
		<polygon class="st5" points="229.1,541.9 201.1,544 199.1,495.7 227.1,511.4 		"/>
		<polygon class="st10" points="173.1,541.2 162.1,529 143.7,516.4 176.4,512.8 		"/>
		<polygon class="st5" points="117,544 87.7,551.9 100.2,505 118.4,496.4 		"/>
		<polygon class="st3" points="162.1,529 117,544 118.4,496.4 143.7,516.4 		"/>
		<polygon class="st13" points="87.7,551.9 72.8,534.7 83.3,496.4 100.2,505 		"/>
		<polygon class="st5" points="37.6,523.3 25.3,541.9 1,511.4 37.6,494.9 		"/>
		<polygon class="st5" points="72.8,534.7 37.6,523.3 37.6,494.9 83.3,496.4 		"/>
		<polygon class="st10" points="0.1,536.7 25.3,541.9 1,511.4 0.1,510.8 		"/>
		<polygon class="st5" points="304,562.4 304,555.7 285.2,526.9 255.8,540.5 263,573.5 278.4,573.5 		"/>
		<polygon class="st13" points="304,531.2 285.2,526.9 304,555.7 		"/>
		<polygon class="st7" points="255.8,540.5 229.1,541.9 226.5,571.7 235.2,573.5 263,573.5 		"/>
		<polygon class="st5" points="191.9,566.7 169.8,554.5 173.1,541.2 201.1,544 		"/>
		<polygon class="st15" points="226.5,571.7 191.9,566.7 201.1,544 229.1,541.9 		"/>
		<polygon class="st7" points="149.6,573.5 154.3,573.5 169.8,554.5 173.1,541.2 162.1,529 		"/>
		<polygon class="st12" points="135.4,573.8 109.4,572.4 87.7,551.9 117,544 		"/>
		<polygon class="st18" points="135.2,573.5 149.6,573.5 162.1,529 117,544 		"/>
		<polygon class="st7" points="109.4,572.4 70.2,573.8 72.8,534.7 87.7,551.9 		"/>
		<polygon class="st5" points="53.3,555.2 10.2,573.8 25.3,541.9 37.6,523.3 		"/>
		<polygon class="st10" points="70.2,573.8 53.3,555.2 37.6,523.3 72.8,534.7 		"/>
		<polygon class="st7" points="0.1,569 9.5,573.5 10.4,573.5 25.3,541.9 0.1,536.7 		"/>
		<polygon class="st10" points="301.6,573.5 304,568.3 304,562.4 278.4,573.5 		"/>
		<polygon class="st12" points="304,573.5 304,568.3 301.6,573.5 		"/>
		<polygon class="st18" points="226.5,571.7 227.3,573.5 235.2,573.5 		"/>
		<polygon class="st13" points="191.9,566.7 169.8,554.5 175.7,573.5 196.3,573.5 		"/>
		<polygon class="st5" points="226.5,571.7 191.9,566.7 196.3,573.5 227.3,573.5 		"/>
		<polygon class="st5" points="169.8,554.5 154.3,573.5 175.7,573.5 		"/>
		<polygon class="st5" points="109.4,572.4 108.9,573.5 129.1,573.5 		"/>
		<polygon class="st5" points="108.9,573.5 109.4,572.4 79.7,573.5 		"/>
		<polygon class="st12" points="49.7,573.5 53.3,555.2 11,573.5 		"/>
		<polygon class="st5" points="53.3,555.2 49.7,573.5 69.9,573.5 		"/>
		<polygon class="st15" points="0.1,573.5 9.5,573.5 0.1,569 		"/>
	</g>
</g>
<rect x="0.1" y="-0.4" class="st0" width="303.9" height="573.9"/>
</svg>
