<?xml version="1.0" encoding="utf-8"?>
<!-- Generator: Adobe Illustrator 22.1.0, SVG Export Plug-In . SVG Version: 6.00 Build 0)  -->
<svg version="1.1" id="SnapText_Menu" xmlns="http://www.w3.org/2000/svg" xmlns:xlink="http://www.w3.org/1999/xlink" x="0px"
	 y="0px" viewBox="0 0 37.9 38.1" style="enable-background:new 0 0 37.9 38.1;" xml:space="preserve">
<style type="text/css">
	.st0{fill:#FFFFFF;}
	.st1{fill:url(#SVGID_1_);}
	.st2{fill:#2B2B2B;}
</style>
<g>
	<g>
		<path class="st0" d="M20.4,10.5V5.3c0-2.9,2.3-5.2,5.2-5.2h6.2c2.9,0,5.2,2.3,5.2,5.2v0c0,2.9-2.3,5.2-5.2,5.2c0,0-5.6,0-7.3,0
			c-1.7,0-2.1-1.5-2.1-1.5L20.4,10.5z"/>
	</g>
	<g>
		
			<radialGradient id="SVGID_1_" cx="242.0629" cy="-315.2396" r="45.0092" gradientTransform="matrix(0.4693 0 0 0.4693 -95.2555 166.6718)" gradientUnits="userSpaceOnUse">
			<stop  offset="0.2746" style="stop-color:#73D9FF"/>
			<stop  offset="0.6658" style="stop-color:#00B4FF"/>
			<stop  offset="1" style="stop-color:#006C99"/>
		</radialGradient>
		<path class="st1" d="M37.8,18c-0.4-1.9-1.8-4.1-4.1-4.7c-0.6-0.1-1.3-0.1-1.9,0c0-0.1-0.2-0.3-0.7-0.3H0.9c-0.5,0-0.9,0.4-0.9,0.9
			c0.3,17.8,8.5,20,11.9,20h8c1.9,0,5-0.6,7.6-3.8l1.1-0.5C35,26.5,38.6,21.9,37.8,18z M30.8,23.1c0.5-1.8,0.8-3.9,1-6.4
			c0.5-0.3,0.9-0.3,1.3-0.3c0.9,0.2,1.5,1.4,1.6,2.1c0.3,1.3-0.7,3.2-2.9,5.1C31.3,24.1,30.6,23.7,30.8,23.1z"/>
	</g>
	<g>
		<g>
			<g>
				<circle class="st2" cx="10.2" cy="20.7" r="3.1"/>
			</g>
			<g>
				<circle class="st0" cx="11.4" cy="20" r="1.2"/>
			</g>
			<g>
				<circle class="st0" cx="8.6" cy="21.6" r="0.6"/>
			</g>
		</g>
		<g>
			<g>
				<circle class="st2" cx="22.4" cy="20.7" r="3.1"/>
			</g>
			<g>
				<circle class="st0" cx="23.6" cy="20" r="1.2"/>
			</g>
			<g>
				<circle class="st0" cx="20.8" cy="21.6" r="0.6"/>
			</g>
		</g>
		<g>
			<path class="st2" d="M16.2,29.4c-3.4,0-4.6-2.6-4.7-2.7c-0.2-0.3,0-0.7,0.3-0.9c0.3-0.2,0.7,0,0.9,0.3c0,0.1,1,2,3.5,2
				c2.5,0,3.5-1.9,3.5-2c0.2-0.3,0.5-0.5,0.9-0.3c0.3,0.2,0.5,0.5,0.3,0.9C20.9,26.8,19.6,29.4,16.2,29.4z"/>
		</g>
	</g>
	<circle class="st2" cx="24.7" cy="5.4" r="1.3"/>
	<circle class="st2" cx="28.6" cy="5.4" r="1.3"/>
	<circle class="st2" cx="32.6" cy="5.4" r="1.3"/>
</g>
</svg>
