<?xml version="1.0" encoding="utf-8"?>
<!-- Generator: Adobe Illustrator 22.1.0, SVG Export Plug-In . SVG Version: 6.00 Build 0)  -->
<svg version="1.1" id="Planner_Menu_Example_2" xmlns="http://www.w3.org/2000/svg" xmlns:xlink="http://www.w3.org/1999/xlink"
	 x="0px" y="0px" viewBox="0 0 37.9 38.1" style="enable-background:new 0 0 37.9 38.1;" xml:space="preserve">
<style type="text/css">
	.st0{fill:url(#SVGID_1_);}
	.st1{fill:url(#SVGID_2_);}
	.st2{fill:url(#SVGID_3_);}
	.st3{fill:url(#SVGID_4_);}
</style>
<g>
	<g>
		<g>
			<linearGradient id="SVGID_1_" gradientUnits="userSpaceOnUse" x1="18.9684" y1="38.0624" x2="18.9684" y2="0.1256">
				<stop  offset="0" style="stop-color:#AAAAFF"/>
				<stop  offset="0.842" style="stop-color:#FBFBFF"/>
				<stop  offset="1" style="stop-color:#FFFFFF"/>
			</linearGradient>
			<path class="st0" d="M33.7,38.1H4.2c-2.3,0-4.2-1.9-4.2-4.2V4.4C0,2,1.9,0.1,4.2,0.1h29.5c2.3,0,4.2,1.9,4.2,4.2v29.5
				C37.9,36.2,36,38.1,33.7,38.1z"/>
		</g>
		<linearGradient id="SVGID_2_" gradientUnits="userSpaceOnUse" x1="18.9684" y1="10.795" x2="18.9684" y2="0.1256">
			<stop  offset="0" style="stop-color:#000154"/>
			<stop  offset="0.2383" style="stop-color:#0D0CAB"/>
			<stop  offset="0.7591" style="stop-color:#0001FF"/>
			<stop  offset="1" style="stop-color:#8F90FF"/>
		</linearGradient>
		<path class="st1" d="M33.7,0.1H4.2C1.9,0.1,0,2,0,4.4v6.4h37.9V4.4C37.9,2,36,0.1,33.7,0.1z"/>
		<g>
			<radialGradient id="SVGID_3_" cx="11.2102" cy="5.1971" r="2.4523" gradientUnits="userSpaceOnUse">
				<stop  offset="0" style="stop-color:#FFFFFF"/>
				<stop  offset="1" style="stop-color:#545454"/>
			</radialGradient>
			<circle class="st2" cx="12" cy="6" r="2.5"/>
			<radialGradient id="SVGID_4_" cx="25.1865" cy="5.1971" r="2.4523" gradientUnits="userSpaceOnUse">
				<stop  offset="0" style="stop-color:#FFFFFF"/>
				<stop  offset="1" style="stop-color:#545454"/>
			</radialGradient>
			<circle class="st3" cx="26" cy="6" r="2.5"/>
		</g>
		<g>
			<path d="M30.2,15.3l0.4,0.8c-2.8,2-5.5,4.5-7.9,7.6s-4.2,6.1-5.2,9l-0.6,0.4c-0.6,0.4-1,0.7-1.4,1.1c-0.1-0.3-0.3-0.9-0.6-1.7
				l-0.3-0.8c-0.7-1.8-1.3-3-1.8-3.8c-0.5-0.7-1-1.1-1.6-1.2c0.8-0.7,1.5-1.1,2.1-1.1c0.8,0,1.7,1.1,2.6,3.2l0.5,1.2
				c1.7-3.1,3.8-5.9,6.2-8.5C24.9,19,27.5,16.9,30.2,15.3z"/>
		</g>
	</g>
</g>
</svg>
