<svg id="Email_Open" data-name="Email Open" xmlns="http://www.w3.org/2000/svg" viewBox="0 0 40.12 22.93"><defs><style>.cls-1{fill:#999;}.cls-2{fill:#87008d;}</style></defs><title>email-read-icon</title><polygon class="cls-1" points="19.79 9.85 12.88 16.06 19.79 22.26 19.79 9.85"/><polygon class="cls-1" points="0 22.32 6.96 16.06 0 9.8 0 22.32"/><path class="cls-1" d="M9.59,13.7a.49.49,0,0,1,.66,0l1.89,1.7L19.6,8.7,9.92,0,.24,8.7,7.7,15.4Z"/><polygon class="cls-1" points="12.14 16.72 11.41 16.06 9.92 14.72 8.05 16.41 7.7 16.72 0.79 22.93 19.05 22.93 12.14 16.72"/><path class="cls-2" d="M40.09,19.68c-1.7-7-8.25-9.39-10.89-10.08V7.28A1.39,1.39,0,0,0,27,6.17l-7.62,5.62a1.38,1.38,0,0,0,0,2.21L27,19.88a1.39,1.39,0,0,0,2.23-1.1V15.92a13.54,13.54,0,0,1,9.51,4.47A.8.8,0,0,0,40.09,19.68Z"/></svg>